<svg xmlns="http://www.w3.org/2000/svg" viewBox="0 0 100 100" fill="none">
  <circle cx="50" cy="50" r="45" fill="rgba(255,255,255,0.1)"/>
  <path d="M35 30 Q35 25, 40 25 Q45 25, 45 30 Q45 25, 50 25 Q55 25, 55 30 Q55 25, 60 25 Q65 25, 65 30" stroke="currentColor" stroke-width="3" fill="none" stroke-linecap="round" stroke-linejoin="round"/>
  <path d="M40 25 L40 55 Q40 70, 50 70 Q60 70, 60 55 L60 30" stroke="currentColor" stroke-width="3" fill="none" stroke-linecap="round" stroke-linejoin="round"/>
  <path d="M50 70 Q55 80, 65 75 Q70 72, 75 78" stroke="currentColor" stroke-width="3" fill="none" stroke-linecap="round" stroke-linejoin="round"/>
  <circle cx="75" cy="78" r="3" fill="currentColor"/>
  <circle cx="45" cy="45" r="2" fill="currentColor"/>
  <circle cx="55" cy="45" r="2" fill="currentColor"/>
</svg>
