<svg width="48" height="48" viewBox="0 0 48 48" xmlns="http://www.w3.org/2000/svg">
<path fill-rule="evenodd" clip-rule="evenodd" d="M23.4136 12.5856C23.7885 12.9606 23.9991 13.4692 23.9991 13.9996C23.9991 14.5299 23.7885 15.0385 23.4136 15.4136L14.8276 23.9996L23.4136 32.5856C23.7779 32.9628 23.9795 33.468 23.9749 33.9924C23.9704 34.5168 23.76 35.0184 23.3892 35.3892C23.0184 35.76 22.5168 35.9704 21.9924 35.9749C21.468 35.9795 20.9628 35.7779 20.5856 35.4136L10.5856 25.4136C10.2106 25.0385 10 24.5299 10 23.9996C10 23.4692 10.2106 22.9606 10.5856 22.5856L20.5856 12.5856C20.9606 12.2106 21.4692 12 21.9996 12C22.5299 12 23.0385 12.2106 23.4136 12.5856ZM35.4136 12.5856C35.7885 12.9606 35.9991 13.4692 35.9991 13.9996C35.9991 14.5299 35.7885 15.0385 35.4136 15.4136L26.8276 23.9996L35.4136 32.5856C35.7779 32.9628 35.9795 33.468 35.9749 33.9924C35.9704 34.5168 35.76 35.0184 35.3892 35.3892C35.0184 35.76 34.5168 35.9704 33.9924 35.9749C33.468 35.9795 32.9628 35.7779 32.5856 35.4136L22.5856 25.4136C22.2106 25.0385 22 24.5299 22 23.9996C22 23.4692 22.2106 22.9606 22.5856 22.5856L32.5856 12.5856C32.9606 12.2106 33.4692 12 33.9996 12C34.5299 12 35.0385 12.2106 35.4136 12.5856Z"/>
</svg>
