<svg width="48" height="48" viewBox="0 0 48 48" xmlns="http://www.w3.org/2000/svg">
<path fill-rule="evenodd" clip-rule="evenodd" d="M31.4127 22.5864C31.7877 22.9614 31.9983 23.47 31.9983 24.0004C31.9983 24.5307 31.7877 25.0393 31.4127 25.4144L20.0987 36.7284C19.9142 36.9194 19.6936 37.0717 19.4495 37.1766C19.2055 37.2814 18.9431 37.3366 18.6775 37.3389C18.412 37.3412 18.1486 37.2906 17.9028 37.19C17.657 37.0894 17.4337 36.9409 17.2459 36.7531C17.0582 36.5654 16.9097 36.3421 16.8091 36.0963C16.7085 35.8505 16.6579 35.5871 16.6602 35.3216C16.6625 35.056 16.7177 34.7936 16.8225 34.5496C16.9273 34.3055 17.0797 34.0849 17.2707 33.9004L27.1707 24.0004L17.2707 14.1004C16.9064 13.7232 16.7048 13.218 16.7094 12.6936C16.7139 12.1692 16.9243 11.6675 17.2951 11.2967C17.6659 10.9259 18.1675 10.7156 18.6919 10.711C19.2163 10.7065 19.7215 10.908 20.0987 11.2724L31.4127 22.5864Z"/>
</svg>
