<svg width="48" height="48" viewBox="0 0 48 48" xmlns="http://www.w3.org/2000/svg">
<path fill-rule="evenodd" clip-rule="evenodd" d="M22.5864 16.5856C22.9614 16.2106 23.47 16 24.0004 16C24.5307 16 25.0393 16.2106 25.4144 16.5856L36.7284 27.8996C37.0927 28.2768 37.2943 28.782 37.2897 29.3064C37.2852 29.8308 37.0748 30.3324 36.704 30.7032C36.3332 31.074 35.8316 31.2844 35.3072 31.2889C34.7828 31.2935 34.2776 31.0919 33.9004 30.7276L24.0004 20.8276L14.1004 30.7276C13.7232 31.0919 13.218 31.2935 12.6936 31.2889C12.1692 31.2844 11.6675 31.074 11.2967 30.7032C10.9259 30.3324 10.7156 29.8308 10.711 29.3064C10.7065 28.782 10.908 28.2768 11.2724 27.8996L22.5864 16.5856Z"/>
</svg>
