<svg width="48" height="48" viewBox="0 0 48 48" xmlns="http://www.w3.org/2000/svg">
<path fill-rule="evenodd" clip-rule="evenodd" d="M25.4127 31.4137C25.0377 31.7887 24.5291 31.9993 23.9987 31.9993C23.4684 31.9993 22.9598 31.7887 22.5847 31.4137L11.2707 20.0997C11.0797 19.9152 10.9273 19.6945 10.8225 19.4505C10.7177 19.2065 10.6625 18.9441 10.6602 18.6785C10.6579 18.413 10.7085 18.1496 10.8091 17.9038C10.9097 17.658 11.0582 17.4347 11.2459 17.2469C11.4337 17.0591 11.657 16.9106 11.9028 16.8101C12.1486 16.7095 12.412 16.6589 12.6775 16.6612C12.9431 16.6635 13.2055 16.7187 13.4495 16.8235C13.6935 16.9283 13.9142 17.0807 14.0987 17.2717L23.9987 27.1717L33.8987 17.2717C34.2759 16.9074 34.7811 16.7058 35.3055 16.7104C35.8299 16.7149 36.3316 16.9253 36.7024 17.2961C37.0732 17.6669 37.2835 18.1685 37.2881 18.6929C37.2926 19.2173 37.0911 19.7225 36.7267 20.0997L25.4127 31.4137Z"/>
</svg>
