<svg width="48" height="48" viewBox="0 0 48 48" xmlns="http://www.w3.org/2000/svg">
<path fill-rule="evenodd" clip-rule="evenodd" d="M12.5856 12.5856C12.9606 12.2106 13.4692 12 13.9996 12C14.5299 12 15.0385 12.2106 15.4136 12.5856L25.4136 22.5856C25.7885 22.9606 25.9991 23.4692 25.9991 23.9996C25.9991 24.5299 25.7885 25.0385 25.4136 25.4136L15.4136 35.4136C15.0364 35.7779 14.5312 35.9795 14.0068 35.9749C13.4824 35.9704 12.9808 35.76 12.6099 35.3892C12.2391 35.0184 12.0288 34.5168 12.0242 33.9924C12.0197 33.468 12.2213 32.9628 12.5856 32.5856L21.1716 23.9996L12.5856 15.4136C12.2106 15.0385 12 14.5299 12 13.9996C12 13.4692 12.2106 12.9606 12.5856 12.5856ZM24.5856 12.5856C24.9606 12.2106 25.4692 12 25.9996 12C26.5299 12 27.0385 12.2106 27.4136 12.5856L37.4136 22.5856C37.7885 22.9606 37.9991 23.4692 37.9991 23.9996C37.9991 24.5299 37.7885 25.0385 37.4136 25.4136L27.4136 35.4136C27.0364 35.7779 26.5312 35.9795 26.0068 35.9749C25.4824 35.9704 24.9808 35.76 24.6099 35.3892C24.2391 35.0184 24.0288 34.5168 24.0242 33.9924C24.0197 33.468 24.2213 32.9628 24.5856 32.5856L33.1716 23.9996L24.5856 15.4136C24.2106 15.0385 24 14.5299 24 13.9996C24 13.4692 24.2106 12.9606 24.5856 12.5856Z"/>
</svg>
