<svg width="48" height="48" viewBox="0 0 48 48" xmlns="http://www.w3.org/2000/svg">
<path fill-rule="evenodd" clip-rule="evenodd" d="M16.5856 25.4137C16.2106 25.0387 16 24.53 16 23.9997C16 23.4694 16.2106 22.9608 16.5856 22.5857L27.8996 11.2717C28.0841 11.0807 28.3048 10.9283 28.5488 10.8235C28.7928 10.7187 29.0552 10.6635 29.3208 10.6612C29.5863 10.6589 29.8497 10.7095 30.0955 10.8101C30.3413 10.9106 30.5646 11.0591 30.7524 11.2469C30.9401 11.4347 31.0887 11.658 31.1892 11.9038C31.2898 12.1496 31.3404 12.413 31.3381 12.6785C31.3358 12.9441 31.2806 13.2065 31.1758 13.4505C31.071 13.6945 30.9186 13.9152 30.7276 14.0997L20.8276 23.9997L30.7276 33.8997C31.0919 34.2769 31.2935 34.7821 31.2889 35.3065C31.2844 35.8309 31.074 36.3325 30.7032 36.7033C30.3324 37.0742 29.8308 37.2845 29.3064 37.2891C28.782 37.2936 28.2768 37.092 27.8996 36.7277L16.5856 25.4137Z"/>
</svg>
